<svg id="graphDiv" width="100%" xmlns="http://www.w3.org/2000/svg" xmlns:xlink="http://www.w3.org/1999/xlink" height="394.625" style="max-width: 737.531px; width: 100%; height: 100%; overflow: visible; transform: scale(1.3) translate(75.5px, 6px);" viewBox="-22.5 -22.5 737.53125 394.625"><style>#graphDiv{font-family:"trebuchet ms",verdana,arial,sans-serif;font-size:16px;fill:#333;}#graphDiv .error-icon{fill:#552222;}#graphDiv .error-text{fill:#552222;stroke:#552222;}#graphDiv .edge-thickness-normal{stroke-width:2px;}#graphDiv .edge-thickness-thick{stroke-width:3.5px;}#graphDiv .edge-pattern-solid{stroke-dasharray:0;}#graphDiv .edge-pattern-dashed{stroke-dasharray:3;}#graphDiv .edge-pattern-dotted{stroke-dasharray:2;}#graphDiv .marker{fill:#333333;}#graphDiv .marker.cross{stroke:#333333;}#graphDiv svg{font-family:"trebuchet ms",verdana,arial,sans-serif;font-size:16px;}#graphDiv g.classGroup text{fill:#9370DB;fill:#131300;stroke:none;font-family:"trebuchet ms",verdana,arial,sans-serif;font-size:10px;}#graphDiv g.classGroup text .title{font-weight:bolder;}#graphDiv .classTitle{font-weight:bolder;}#graphDiv .node rect,#graphDiv .node circle,#graphDiv .node ellipse,#graphDiv .node polygon,#graphDiv .node path{fill:#ECECFF;stroke:#9370DB;stroke-width:1px;}#graphDiv .divider{stroke:#9370DB;stroke:1;}#graphDiv g.clickable{cursor:pointer;}#graphDiv g.classGroup rect{fill:#ECECFF;stroke:#9370DB;}#graphDiv g.classGroup line{stroke:#9370DB;stroke-width:1;}#graphDiv .classLabel .box{stroke:none;stroke-width:0;fill:#ECECFF;opacity:0.5;}#graphDiv .classLabel .label{fill:#9370DB;font-size:10px;}#graphDiv .relation{stroke:#333333;stroke-width:1;fill:none;}#graphDiv .dashed-line{stroke-dasharray:3;}#graphDiv #compositionStart,#graphDiv .composition{fill:#333333 !important;stroke:#333333 !important;stroke-width:1;}#graphDiv #compositionEnd,#graphDiv .composition{fill:#333333 !important;stroke:#333333 !important;stroke-width:1;}#graphDiv #dependencyStart,#graphDiv .dependency{fill:#333333 !important;stroke:#333333 !important;stroke-width:1;}#graphDiv #dependencyStart,#graphDiv .dependency{fill:#333333 !important;stroke:#333333 !important;stroke-width:1;}#graphDiv #extensionStart,#graphDiv .extension{fill:#333333 !important;stroke:#333333 !important;stroke-width:1;}#graphDiv #extensionEnd,#graphDiv .extension{fill:#333333 !important;stroke:#333333 !important;stroke-width:1;}#graphDiv #aggregationStart,#graphDiv .aggregation{fill:#ECECFF !important;stroke:#333333 !important;stroke-width:1;}#graphDiv #aggregationEnd,#graphDiv .aggregation{fill:#ECECFF !important;stroke:#333333 !important;stroke-width:1;}#graphDiv .edgeTerminals{font-size:11px;}#graphDiv .label div{padding:5px 24px;}#graphDiv .label{font-family:Inter,Arial,sans-serif;color:#ffffff;font-size:15px;font-weight:500;}#graphDiv li{font-family:Inter,Arial,sans-serif;color:#ffffff;font-size:13px;padding-left:0.5em;font-weight:500;text-align:left;}#graphDiv li:first-of-type{padding-top:7px;}#graphDiv ul{margin-top:8px;margin-bottom:1rem;margin-left:-50px;border-top:1px solid #5ae1a8;width:500%;list-style-type:none;}#graphDiv .node rect{fill:#51a0f4;stroke:#51a0f4;color:#ffffff;}#graphDiv .edgeLabel{color:#b9b9b9;background-color:transparent;font-size:12px;}#graphDiv .edge-thickness-normal{stroke-width:1px;!important;}#graphDiv .path{stroke:#d5d5d5 !important;}#graphDiv .edgeLabel{color:#353535;font-size:11px;font-weight:600;}#graphDiv .flowchart-link{stroke:#c0c4ce !important;}#graphDiv #extensionEnd{fill:white;}#graphDiv .cluster rect{fill:#e8f5ff;stroke:#3c60cc;stroke-width:1px;opacity:0.3;stroke-dasharray:6;}#graphDiv .cluster .nodeLabel{font-size:14px;color:#92a7cc;}#graphDiv .fa{padding:0 4px 4px 0 !important;-webkit-transform:scale(1.2);-ms-transform:scale(1.2);transform:scale(1.2);}#graphDiv rect[rx="5"]{fill:#22d097 !important;stroke:#22d097 !important;}#graphDiv rect[rx^="23"]{fill:#f47474 !important;stroke:#f47474 !important;}#graphDiv circle[rx="0"]{fill:#9B84D0;stroke:#9370DB;stroke-width:1px;}#graphDiv .node path{fill:#FF9555 !important;stroke:#FFAB61 !important;stroke-width:1px;}#graphDiv .node polygon{fill:#FF7B65 !important;stroke:#FF7B65 !important;stroke-width:1px;}#graphDiv .node polygon[points*="0,-"]{fill:#3B5DAE !important;stroke:#FFF !important;}#graphDiv .node path + .label ul{border-top:1px solid #FFAB61;}#graphDiv .node polygon + .label ul{border-top:1px solid #5e7ed0;}#graphDiv rect[class="er entityBox"]{fill:#2ea2f7 !important;stroke:#2ea2f7 !important;}#graphDiv marker{fill:#000;}#graphDiv text[class="er entityLabel"]{fill:#ffffff;font-weight:600;font-size:15px !important;font-family:Oxygen,Arial,sans-serif !important;}#graphDiv rect[class="er attributeBoxOdd"]{fill:#0d7ed1 !important;stroke:#2ea2f7 !important;}#graphDiv rect[class="er attributeBoxEven"]{fill:#74b4e3 !important;stroke:#2ea2f7 !important;}#graphDiv text[class="er relationshipLabel"]{fill:#353535;font-weight:600;font-size:11px !important;font-family:Oxygen,Arial,sans-serif !important;}#graphDiv text[class="actor"] &gt; tspan{fill:#ffffff;font-weight:600 !important;font-size:15px !important;font-family:Oxygen,Arial,sans-serif !important;}#graphDiv polygon[class="labelBox"]{fill:#b3d6ee !important;stroke:#93b4c9 !important;}#graphDiv line[class="loopLine"]{fill:#93b4c9 !important;stroke:#93b4c9 !important;}#graphDiv rect[class="actor"]{fill:#2ea2f7;stroke:#2ea2f7;}#graphDiv text[class="noteText"] &gt; tspan{fill:#ffffff;font-weight:600 !important;font-size:13px !important;font-family:Oxygen,Arial,sans-serif !important;}#graphDiv rect[class="note"]{fill:#3B5DAE;stroke:#2b4480;}#graphDiv rect[class=" classShape"]{fill:#2ea2f7 !important;stroke:#2ea2f7 !important;}#graphDiv g.classGroup line{stroke:#2283c9 !important;}#graphDiv g.classGroup text{fill:#ffffff !important;font-weight:600 !important;font-family:Oxygen,Arial,sans-serif !important;}#graphDiv g.classLabel .label{fill:#3B5DAE !important;font-weight:600 !important;font-family:Oxygen,Arial,sans-serif !important;}#graphDiv:root{--mermaid-font-family:"trebuchet ms",verdana,arial,sans-serif;}#graphDiv class{fill:apa;}</style><g></g><defs><marker id="extensionStart" class="extension" refX="0" refY="7" markerWidth="190" markerHeight="240" orient="auto"><path d="M 1,7 L18,13 V 1 Z"></path></marker></defs><defs><marker id="extensionEnd" refX="19" refY="7" markerWidth="20" markerHeight="28" orient="auto"><path d="M 1,1 V 13 L18,7 Z"></path></marker></defs><defs><marker id="compositionStart" class="extension" refX="0" refY="7" markerWidth="190" markerHeight="240" orient="auto"><path d="M 18,7 L9,13 L1,7 L9,1 Z"></path></marker></defs><defs><marker id="compositionEnd" refX="19" refY="7" markerWidth="20" markerHeight="28" orient="auto"><path d="M 18,7 L9,13 L1,7 L9,1 Z"></path></marker></defs><defs><marker id="aggregationStart" class="extension" refX="0" refY="7" markerWidth="190" markerHeight="240" orient="auto"><path d="M 18,7 L9,13 L1,7 L9,1 Z"></path></marker></defs><defs><marker id="aggregationEnd" refX="19" refY="7" markerWidth="20" markerHeight="28" orient="auto"><path d="M 18,7 L9,13 L1,7 L9,1 Z"></path></marker></defs><defs><marker id="dependencyStart" class="extension" refX="0" refY="7" markerWidth="190" markerHeight="240" orient="auto"><path d="M 5,7 L9,13 L1,7 L9,1 Z"></path></marker></defs><defs><marker id="dependencyEnd" refX="19" refY="7" markerWidth="20" markerHeight="28" orient="auto"><path d="M 18,7 L9,13 L14,7 L9,1 Z"></path></marker></defs><g id="classid-User-113" class="classGroup" transform="translate(341,147.375 )"><rect x="0" y="0" width="67.796875" height="87.375" class=" classShape"></rect><text y="15" x="0"><tspan class="title" x="20.671875">User</tspan></text><line x1="0" y1="24.6875" y2="24.6875" x2="67.796875"></line><text x="5" y="34.6875" fill="white" class="classText"><tspan x="5">- idUser</tspan><tspan x="5" dy="10">- pseudo</tspan><tspan x="5" dy="10">- email</tspan><tspan x="5" dy="10">- password</tspan><tspan x="5" dy="10">- isValidate</tspan></text><line x1="0" y1="81.03125" y2="81.03125" x2="67.796875"></line><text x="5" y="96.03125" fill="white" class="classText"></text></g><g id="classid-Player-114" class="classGroup" transform="translate(24.0859375,5 )"><rect x="0" y="0" width="68.78125" height="87.375" class=" classShape"></rect><text y="15" x="0"><tspan class="title" x="16.8046875">Player</tspan></text><line x1="0" y1="24.6875" y2="24.6875" x2="68.78125"></line><text x="5" y="34.6875" fill="white" class="classText"><tspan x="5">- idTeacher</tspan><tspan x="5" dy="10">- mood</tspan><tspan x="5" dy="10">- sleep</tspan><tspan x="5" dy="10">- pedagogy</tspan><tspan x="5" dy="10">- charisma</tspan></text><line x1="0" y1="81.03125" y2="81.03125" x2="68.78125"></line><text x="5" y="96.03125" fill="white" class="classText"></text></g><g id="classid-Student-115" class="classGroup" transform="translate(191.5234375,0 )"><rect x="0" y="0" width="74.90625" height="97.375" class=" classShape"></rect><text y="15" x="0"><tspan class="title" x="15.9453125">Student</tspan></text><line x1="0" y1="24.6875" y2="24.6875" x2="74.90625"></line><text x="5" y="34.6875" fill="white" class="classText"><tspan x="5">- idStudent</tspan><tspan x="5" dy="10">- attendance</tspan><tspan x="5" dy="10">- personality</tspan><tspan x="5" dy="10">- grade</tspan><tspan x="5" dy="10">- isFailure</tspan><tspan x="5" dy="10">- isPresent</tspan></text><line x1="0" y1="91.03125" y2="91.03125" x2="74.90625"></line><text x="5" y="106.03125" fill="white" class="classText"></text></g><g id="classid-Question-116" class="classGroup" transform="translate(459.6640625,157.375 )"><rect x="0" y="0" width="118.34375" height="67.375" class=" classShape"></rect><text y="15" x="0"><tspan class="title" x="34.7265625">Question</tspan></text><line x1="0" y1="24.6875" y2="24.6875" x2="118.34375"></line><text x="5" y="34.6875" fill="white" class="classText"><tspan x="5">- idQuestion</tspan><tspan x="5" dy="10">- nameQuestion</tspan><tspan x="5" dy="10">- descriptionQuestion</tspan></text><line x1="0" y1="61.03125" y2="61.03125" x2="118.34375"></line><text x="5" y="76.03125" fill="white" class="classText"></text></g><g id="classid-Event-117" class="classGroup" transform="translate(475,10 )"><rect x="0" y="0" width="87.671875" height="77.375" class=" classShape"></rect><text y="15" x="0"><tspan class="title" x="28.296875">Event</tspan></text><line x1="0" y1="24.6875" y2="24.6875" x2="87.671875"></line><text x="5" y="34.6875" fill="white" class="classText"><tspan x="5">- cooldown</tspan><tspan x="5" dy="10">- frequency</tspan><tspan x="5" dy="10">- cooldownMin</tspan><tspan x="5" dy="10">- cooldownMax</tspan></text><line x1="0" y1="71.03125" y2="71.03125" x2="87.671875"></line><text x="5" y="86.03125" fill="white" class="classText"></text></g><g id="classid-Action-118" class="classGroup" transform="translate(612.671875,15 )"><rect x="0" y="0" width="82.359375" height="67.375" class=" classShape"></rect><text y="15" x="0"><tspan class="title" x="23.0625">Action</tspan></text><line x1="0" y1="24.6875" y2="24.6875" x2="82.359375"></line><text x="5" y="34.6875" fill="white" class="classText"><tspan x="5">- duration</tspan><tspan x="5" dy="10">- actionPeriod</tspan><tspan x="5" dy="10">- isAvailable</tspan></text><line x1="0" y1="61.03125" y2="61.03125" x2="82.359375"></line><text x="5" y="76.03125" fill="white" class="classText"></text></g><g id="classid-Answer-119" class="classGroup" transform="translate(172.6875,284.75 )"><rect x="0" y="0" width="112.578125" height="67.375" class=" classShape"></rect><text y="15" x="0"><tspan class="title" x="35.1328125">Answer</tspan></text><line x1="0" y1="24.6875" y2="24.6875" x2="112.578125"></line><text x="5" y="34.6875" fill="white" class="classText"><tspan x="5">- idAnswer</tspan><tspan x="5" dy="10">- descriptionAnswer</tspan><tspan x="5" dy="10">- idEffect</tspan></text><line x1="0" y1="61.03125" y2="61.03125" x2="112.578125"></line><text x="5" y="76.03125" fill="white" class="classText"></text></g><g id="classid-EffectPlayer-120" class="classGroup" transform="translate(0,157.375 )"><rect x="0" y="0" width="116.953125" height="67.375" class=" classShape"></rect><text y="15" x="0"><tspan class="title" x="24.4609375">EffectPlayer</tspan></text><line x1="0" y1="24.6875" y2="24.6875" x2="116.953125"></line><text x="5" y="34.6875" fill="white" class="classText"><tspan x="5">- idEffectPlayer</tspan><tspan x="5" dy="10">- valueEffectPlayer</tspan><tspan x="5" dy="10">- characteristicPlayer</tspan></text><line x1="0" y1="61.03125" y2="61.03125" x2="116.953125"></line><text x="5" y="76.03125" fill="white" class="classText"></text></g><g id="classid-EffectStudent-121" class="classGroup" transform="translate(166.953125,157.375 )"><rect x="0" y="0" width="124.046875" height="67.375" class=" classShape"></rect><text y="15" x="0"><tspan class="title" x="24.0859375">EffectStudent</tspan></text><line x1="0" y1="24.6875" y2="24.6875" x2="124.046875"></line><text x="5" y="34.6875" fill="white" class="classText"><tspan x="5">- idEffectStudent</tspan><tspan x="5" dy="10">- valueStudent</tspan><tspan x="5" dy="10">- characteristicStudent</tspan></text><line x1="0" y1="61.03125" y2="61.03125" x2="124.046875"></line><text x="5" y="76.03125" fill="white" class="classText"></text></g><g id="classid-Game-122" class="classGroup" transform="translate(353.9296875,10 )"><rect x="0" y="0" width="61.9375" height="77.375" class=" classShape"></rect><text y="15" x="0"><tspan class="title" x="15.1328125">Game</tspan></text><line x1="0" y1="24.6875" y2="24.6875" x2="61.9375"></line><text x="5" y="34.6875" fill="white" class="classText"><tspan x="5">- idGame</tspan><tspan x="5" dy="10">- turn</tspan><tspan x="5" dy="10">- dayTime</tspan><tspan x="5" dy="10">- date</tspan></text><line x1="0" y1="71.03125" y2="71.03125" x2="61.9375"></line><text x="5" y="86.03125" fill="white" class="classText"></text></g><path d="M518.8359375,87.375L518.8359375,93.20833333333333C518.8359375,99.04166666666667,518.8359375,110.70833333333333,518.8359375,122.375C518.8359375,134.04166666666666,518.8359375,145.70833333333334,518.8359375,151.54166666666666L518.8359375,157.375" id="edge45" class="relation" marker-end="url(#dependencyEnd)"></path><g class="classLabel"><rect class="box" x="-2.5" y="-2.5" width="5" height="5"></rect><text class="label" x="518.8359375" y="122.375" fill="red" text-anchor="middle"></text></g><path d="M653.8515625,82.375L653.8515625,89.04166666666667C653.8515625,95.70833333333333,653.8515625,109.04166666666667,641.2109375,122.13909221540716C628.5703125,135.23651776414766,603.2890625,148.09803552829533,590.6484375,154.52879441036916L578.0078125,160.959553292443" id="edge46" class="relation" marker-end="url(#dependencyEnd)"></path><g class="classLabel"><rect class="box" x="-2.5" y="-2.5" width="5" height="5"></rect><text class="label" x="633.7554967702002" y="132.59862052403653" fill="red" text-anchor="middle"></text></g><path d="M58.4765625,224.75L58.4765625,230.58333333333334C58.4765625,236.41666666666666,58.4765625,248.08333333333334,77.51171875,260.46872374831986C96.546875,272.8541141633064,134.6171875,285.95822832661287,153.65234375,292.5102854082661L172.6875,299.06234248991933" id="edge47" class="relation"></path><g class="classLabel"><rect class="box" x="-2.5" y="-2.5" width="5" height="5"></rect><text class="label" x="99.03484806880624" y="273.7104949226939" fill="red" text-anchor="middle"></text></g><g class="cardinality"><text class="type1" x="53.4765625" y="237.25" fill="black" font-size="6">0..</text></g><g class="cardinality"><text class="type2" x="162.49541953408038" y="290.26623563653135" fill="black" font-size="6">1..</text></g><path d="M228.9765625,224.75L228.9765625,230.58333333333334C228.9765625,236.41666666666666,228.9765625,248.08333333333334,228.9765625,258.0833333333333C228.9765625,268.0833333333333,228.9765625,276.4166666666667,228.9765625,280.5833333333333L228.9765625,284.75" id="edge48" class="relation"></path><g class="classLabel"><rect class="box" x="-2.5" y="-2.5" width="5" height="5"></rect><text class="label" x="228.9765625" y="254.75" fill="red" text-anchor="middle"></text></g><g class="cardinality"><text class="type1" x="223.9765625" y="237.25" fill="black" font-size="6">0..</text></g><g class="cardinality"><text class="type2" x="233.9765625" y="272.25" fill="black" font-size="6">1..</text></g><path d="M518.8359375,224.75L518.8359375,230.58333333333334C518.8359375,236.41666666666666,518.8359375,248.08333333333334,479.9075520833333,261.79845285743806C440.9791666666667,275.5135723815428,363.1223958333333,291.2771447630856,324.1940104166667,299.15893095385695L285.265625,307.04071714462833" id="edge49" class="relation"></path><g class="classLabel"><rect class="box" x="-2.5" y="-2.5" width="5" height="5"></rect><text class="label" x="419.2027513107319" y="279.9226185826582" fill="red" text-anchor="middle"></text></g><g class="cardinality"><text class="type1" x="513.8359375" y="237.25" fill="black" font-size="6">1</text></g><g class="cardinality"><text class="type2" x="298.5092436118531" y="309.46075145508314" fill="black" font-size="6">0..</text></g><path d="M379.6482254558948,87.375L378.85659412991237,93.20833333333333C378.06496280392986,99.04166666666667,376.48170015196496,110.70833333333333,375.6900688259825,120.70833333333333C374.8984375,130.70833333333334,374.8984375,139.04166666666666,374.8984375,143.20833333333334L374.8984375,147.375" id="edge50" class="relation"></path><g class="classLabel"><rect class="box" x="-2.5" y="-2.5" width="5" height="5"></rect><text class="label" x="375.5923867649489" y="117.26146135390744" fill="red" text-anchor="middle"></text></g><g class="cardinality"><text class="type1" x="373.0126962013334" y="99.08908346870805" fill="black" font-size="6">1</text></g><g class="cardinality"><text class="type2" x="379.8984375" y="134.875" fill="black" font-size="6">1</text></g><path d="M58.4765625,92.375L58.4765625,97.375C58.4765625,102.375,58.4765625,112.375,58.4765625,123.20833333333333C58.4765625,134.04166666666666,58.4765625,145.70833333333334,58.4765625,151.54166666666666L58.4765625,157.375" id="edge51" class="relation"></path><g class="classLabel"><rect class="box" x="-2.5" y="-2.5" width="5" height="5"></rect><text class="label" x="58.4765625" y="124.875" fill="red" text-anchor="middle"></text></g><g class="cardinality"><text class="type1" x="53.4765625" y="104.875" fill="black" font-size="6">1</text></g><g class="cardinality"><text class="type2" x="63.4765625" y="144.875" fill="black" font-size="6">0..</text></g><path d="M228.9765625,97.375L228.9765625,101.54166666666667C228.9765625,105.70833333333333,228.9765625,114.04166666666667,228.9765625,124.04166666666667C228.9765625,134.04166666666666,228.9765625,145.70833333333334,228.9765625,151.54166666666666L228.9765625,157.375" id="edge52" class="relation"></path><g class="classLabel"><rect class="box" x="-2.5" y="-2.5" width="5" height="5"></rect><text class="label" x="228.97656250000003" y="127.37500000000001" fill="red" text-anchor="middle"></text></g><g class="cardinality"><text class="type1" x="223.9765625" y="109.875" fill="black" font-size="6">1..</text></g><g class="cardinality"><text class="type2" x="233.9765625" y="144.875" fill="black" font-size="6">0..</text></g><path d="M415.8671875,85.77215054275376L420.9615885416667,91.8726254522948C426.0559895833333,97.97310036183585,436.2447916666667,110.17405018091792,447.4880117104565,122.10785842379228C458.73123175424627,134.04166666666666,471.0288697584926,145.70833333333334,477.1776887606157,151.54166666666666L483.32650776273886,157.375" id="edge53" class="relation"></path><g class="classLabel"><rect class="box" x="-2.5" y="-2.5" width="5" height="5"></rect><text class="label" x="447.5821394885766" y="123.46461576839121" fill="red" text-anchor="middle"></text></g><g class="cardinality"><text class="type1" x="420.041591188385" y="98.57153935028664" fill="black" font-size="6">0..</text></g><g class="cardinality"><text class="type2" x="477.69934449931765" y="145.1445039509101" fill="black" font-size="6">1..</text></g></svg>