<svg id="graphDiv" width="100%" xmlns="http://www.w3.org/2000/svg" xmlns:xlink="http://www.w3.org/1999/xlink" height="492" style="max-width: 100%; width: 100%; height: 100%; overflow: visible; transform: scale(1);" viewBox="-22.5 -22.5 707.671875 492"><style>#graphDiv{font-family:"trebuchet ms",verdana,arial,sans-serif;font-size:16px;fill:#333;}#graphDiv .error-icon{fill:#552222;}#graphDiv .error-text{fill:#552222;stroke:#552222;}#graphDiv .edge-thickness-normal{stroke-width:2px;}#graphDiv .edge-thickness-thick{stroke-width:3.5px;}#graphDiv .edge-pattern-solid{stroke-dasharray:0;}#graphDiv .edge-pattern-dashed{stroke-dasharray:3;}#graphDiv .edge-pattern-dotted{stroke-dasharray:2;}#graphDiv .marker{fill:#333333;}#graphDiv .marker.cross{stroke:#333333;}#graphDiv svg{font-family:"trebuchet ms",verdana,arial,sans-serif;font-size:16px;}#graphDiv g.classGroup text{fill:#9370DB;fill:#131300;stroke:none;font-family:"trebuchet ms",verdana,arial,sans-serif;font-size:10px;}#graphDiv g.classGroup text .title{font-weight:bolder;}#graphDiv .classTitle{font-weight:bolder;}#graphDiv .node rect,#graphDiv .node circle,#graphDiv .node ellipse,#graphDiv .node polygon,#graphDiv .node path{fill:#ECECFF;stroke:#9370DB;stroke-width:1px;}#graphDiv .divider{stroke:#9370DB;stroke:1;}#graphDiv g.clickable{cursor:pointer;}#graphDiv g.classGroup rect{fill:#ECECFF;stroke:#9370DB;}#graphDiv g.classGroup line{stroke:#9370DB;stroke-width:1;}#graphDiv .classLabel .box{stroke:none;stroke-width:0;fill:#ECECFF;opacity:0.5;}#graphDiv .classLabel .label{fill:#9370DB;font-size:10px;}#graphDiv .relation{stroke:#333333;stroke-width:1;fill:none;}#graphDiv .dashed-line{stroke-dasharray:3;}#graphDiv #compositionStart,#graphDiv .composition{fill:#333333 !important;stroke:#333333 !important;stroke-width:1;}#graphDiv #compositionEnd,#graphDiv .composition{fill:#333333 !important;stroke:#333333 !important;stroke-width:1;}#graphDiv #dependencyStart,#graphDiv .dependency{fill:#333333 !important;stroke:#333333 !important;stroke-width:1;}#graphDiv #dependencyStart,#graphDiv .dependency{fill:#333333 !important;stroke:#333333 !important;stroke-width:1;}#graphDiv #extensionStart,#graphDiv .extension{fill:#333333 !important;stroke:#333333 !important;stroke-width:1;}#graphDiv #extensionEnd,#graphDiv .extension{fill:#333333 !important;stroke:#333333 !important;stroke-width:1;}#graphDiv #aggregationStart,#graphDiv .aggregation{fill:#ECECFF !important;stroke:#333333 !important;stroke-width:1;}#graphDiv #aggregationEnd,#graphDiv .aggregation{fill:#ECECFF !important;stroke:#333333 !important;stroke-width:1;}#graphDiv .edgeTerminals{font-size:11px;}#graphDiv .label div{padding:5px 24px;}#graphDiv .label{font-family:Inter,Arial,sans-serif;color:#ffffff;font-size:15px;font-weight:500;}#graphDiv li{font-family:Inter,Arial,sans-serif;color:#ffffff;font-size:13px;padding-left:0.5em;font-weight:500;text-align:left;}#graphDiv li:first-of-type{padding-top:7px;}#graphDiv ul{margin-top:8px;margin-bottom:1rem;margin-left:-50px;border-top:1px solid #5ae1a8;width:500%;list-style-type:none;}#graphDiv .node rect{fill:#51a0f4;stroke:#51a0f4;color:#ffffff;}#graphDiv .edgeLabel{color:#b9b9b9;background-color:transparent;font-size:12px;}#graphDiv .edge-thickness-normal{stroke-width:1px;!important;}#graphDiv .path{stroke:#d5d5d5 !important;}#graphDiv .edgeLabel{color:#353535;font-size:11px;font-weight:600;}#graphDiv .flowchart-link{stroke:#c0c4ce !important;}#graphDiv #extensionEnd{fill:white;}#graphDiv .cluster rect{fill:#e8f5ff;stroke:#3c60cc;stroke-width:1px;opacity:0.3;stroke-dasharray:6;}#graphDiv .cluster .nodeLabel{font-size:14px;color:#92a7cc;}#graphDiv .fa{padding:0 4px 4px 0 !important;-webkit-transform:scale(1.2);-ms-transform:scale(1.2);transform:scale(1.2);}#graphDiv rect[rx="5"]{fill:#22d097 !important;stroke:#22d097 !important;}#graphDiv rect[rx^="23"]{fill:#f47474 !important;stroke:#f47474 !important;}#graphDiv circle[rx="0"]{fill:#9B84D0;stroke:#9370DB;stroke-width:1px;}#graphDiv .node path{fill:#FF9555 !important;stroke:#FFAB61 !important;stroke-width:1px;}#graphDiv .node polygon{fill:#FF7B65 !important;stroke:#FF7B65 !important;stroke-width:1px;}#graphDiv .node polygon[points*="0,-"]{fill:#3B5DAE !important;stroke:#FFF !important;}#graphDiv .node path + .label ul{border-top:1px solid #FFAB61;}#graphDiv .node polygon + .label ul{border-top:1px solid #5e7ed0;}#graphDiv rect[class="er entityBox"]{fill:#2ea2f7 !important;stroke:#2ea2f7 !important;}#graphDiv marker{fill:#000;}#graphDiv text[class="er entityLabel"]{fill:#ffffff;font-weight:600;font-size:15px !important;font-family:Oxygen,Arial,sans-serif !important;}#graphDiv rect[class="er attributeBoxOdd"]{fill:#0d7ed1 !important;stroke:#2ea2f7 !important;}#graphDiv rect[class="er attributeBoxEven"]{fill:#74b4e3 !important;stroke:#2ea2f7 !important;}#graphDiv text[class="er relationshipLabel"]{fill:#353535;font-weight:600;font-size:11px !important;font-family:Oxygen,Arial,sans-serif !important;}#graphDiv text[class="actor"] &gt; tspan{fill:#ffffff;font-weight:600 !important;font-size:15px !important;font-family:Oxygen,Arial,sans-serif !important;}#graphDiv polygon[class="labelBox"]{fill:#b3d6ee !important;stroke:#93b4c9 !important;}#graphDiv line[class="loopLine"]{fill:#93b4c9 !important;stroke:#93b4c9 !important;}#graphDiv rect[class="actor"]{fill:#2ea2f7;stroke:#2ea2f7;}#graphDiv text[class="noteText"] &gt; tspan{fill:#ffffff;font-weight:600 !important;font-size:13px !important;font-family:Oxygen,Arial,sans-serif !important;}#graphDiv rect[class="note"]{fill:#3B5DAE;stroke:#2b4480;}#graphDiv rect[class=" classShape"]{fill:#2ea2f7 !important;stroke:#2ea2f7 !important;}#graphDiv g.classGroup line{stroke:#2283c9 !important;}#graphDiv g.classGroup text{fill:#ffffff !important;font-weight:600 !important;font-family:Oxygen,Arial,sans-serif !important;}#graphDiv g.classLabel .label{fill:#3B5DAE !important;font-weight:600 !important;font-family:Oxygen,Arial,sans-serif !important;}#graphDiv:root{--mermaid-font-family:"trebuchet ms",verdana,arial,sans-serif;}#graphDiv class{fill:apa;}</style><g></g><defs><marker id="extensionStart" class="extension" refX="0" refY="7" markerWidth="190" markerHeight="240" orient="auto"><path d="M 1,7 L18,13 V 1 Z"></path></marker></defs><defs><marker id="extensionEnd" refX="19" refY="7" markerWidth="20" markerHeight="28" orient="auto"><path d="M 1,1 V 13 L18,7 Z"></path></marker></defs><defs><marker id="compositionStart" class="extension" refX="0" refY="7" markerWidth="190" markerHeight="240" orient="auto"><path d="M 18,7 L9,13 L1,7 L9,1 Z"></path></marker></defs><defs><marker id="compositionEnd" refX="19" refY="7" markerWidth="20" markerHeight="28" orient="auto"><path d="M 18,7 L9,13 L1,7 L9,1 Z"></path></marker></defs><defs><marker id="aggregationStart" class="extension" refX="0" refY="7" markerWidth="190" markerHeight="240" orient="auto"><path d="M 18,7 L9,13 L1,7 L9,1 Z"></path></marker></defs><defs><marker id="aggregationEnd" refX="19" refY="7" markerWidth="20" markerHeight="28" orient="auto"><path d="M 18,7 L9,13 L1,7 L9,1 Z"></path></marker></defs><defs><marker id="dependencyStart" class="extension" refX="0" refY="7" markerWidth="190" markerHeight="240" orient="auto"><path d="M 5,7 L9,13 L1,7 L9,1 Z"></path></marker></defs><defs><marker id="dependencyEnd" refX="19" refY="7" markerWidth="20" markerHeight="28" orient="auto"><path d="M 18,7 L9,13 L14,7 L9,1 Z"></path></marker></defs><g id="classid-User-554" class="classGroup" transform="translate(0,132.375 )"><rect x="0" y="0" width="67.796875" height="87.375" class=" classShape"></rect><text y="15" x="0"><tspan class="title" x="20.671875">User</tspan></text><line x1="0" y1="24.6875" y2="24.6875" x2="67.796875"></line><text x="5" y="34.6875" fill="white" class="classText"><tspan x="5">- idUser</tspan><tspan x="5" dy="10">- pseudo</tspan><tspan x="5" dy="10">- email</tspan><tspan x="5" dy="10">- password</tspan><tspan x="5" dy="10">- isValidate</tspan></text><line x1="0" y1="81.03125" y2="81.03125" x2="67.796875"></line><text x="5" y="96.03125" fill="white" class="classText"></text></g><g id="classid-Player-555" class="classGroup" transform="translate(117.796875,132.375 )"><rect x="0" y="0" width="68.78125" height="87.375" class=" classShape"></rect><text y="15" x="0"><tspan class="title" x="16.8046875">Player</tspan></text><line x1="0" y1="24.6875" y2="24.6875" x2="68.78125"></line><text x="5" y="34.6875" fill="white" class="classText"><tspan x="5">- idTeacher</tspan><tspan x="5" dy="10">- mood</tspan><tspan x="5" dy="10">- sleep</tspan><tspan x="5" dy="10">- pedagogy</tspan><tspan x="5" dy="10">- charisma</tspan></text><line x1="0" y1="81.03125" y2="81.03125" x2="68.78125"></line><text x="5" y="96.03125" fill="white" class="classText"></text></g><g id="classid-Student-556" class="classGroup" transform="translate(285.234375,127.375 )"><rect x="0" y="0" width="74.90625" height="97.375" class=" classShape"></rect><text y="15" x="0"><tspan class="title" x="15.9453125">Student</tspan></text><line x1="0" y1="24.6875" y2="24.6875" x2="74.90625"></line><text x="5" y="34.6875" fill="white" class="classText"><tspan x="5">- idStudent</tspan><tspan x="5" dy="10">- attendance</tspan><tspan x="5" dy="10">- personality</tspan><tspan x="5" dy="10">- grade</tspan><tspan x="5" dy="10">- isFailure</tspan><tspan x="5" dy="10">- isPresent</tspan></text><line x1="0" y1="91.03125" y2="91.03125" x2="74.90625"></line><text x="5" y="106.03125" fill="white" class="classText"></text></g><g id="classid-Question-557" class="classGroup" transform="translate(529.8203125,274.75 )"><rect x="0" y="0" width="118.34375" height="67.375" class=" classShape"></rect><text y="15" x="0"><tspan class="title" x="34.7265625">Question</tspan></text><line x1="0" y1="24.6875" y2="24.6875" x2="118.34375"></line><text x="5" y="34.6875" fill="white" class="classText"><tspan x="5">- idQuestion</tspan><tspan x="5" dy="10">- nameQuestion</tspan><tspan x="5" dy="10">- descriptionQuestion</tspan></text><line x1="0" y1="61.03125" y2="61.03125" x2="118.34375"></line><text x="5" y="76.03125" fill="white" class="classText"></text></g><g id="classid-Event-558" class="classGroup" transform="translate(410.140625,137.375 )"><rect x="0" y="0" width="87.671875" height="77.375" class=" classShape"></rect><text y="15" x="0"><tspan class="title" x="28.296875">Event</tspan></text><line x1="0" y1="24.6875" y2="24.6875" x2="87.671875"></line><text x="5" y="34.6875" fill="white" class="classText"><tspan x="5">- cooldown</tspan><tspan x="5" dy="10">- frequency</tspan><tspan x="5" dy="10">- cooldownMin</tspan><tspan x="5" dy="10">- cooldownMax</tspan></text><line x1="0" y1="71.03125" y2="71.03125" x2="87.671875"></line><text x="5" y="86.03125" fill="white" class="classText"></text></g><g id="classid-Action-559" class="classGroup" transform="translate(547.8125,142.375 )"><rect x="0" y="0" width="82.359375" height="67.375" class=" classShape"></rect><text y="15" x="0"><tspan class="title" x="23.0625">Action</tspan></text><line x1="0" y1="24.6875" y2="24.6875" x2="82.359375"></line><text x="5" y="34.6875" fill="white" class="classText"><tspan x="5">- duration</tspan><tspan x="5" dy="10">- actionPeriod</tspan><tspan x="5" dy="10">- isAvailable</tspan></text><line x1="0" y1="61.03125" y2="61.03125" x2="82.359375"></line><text x="5" y="76.03125" fill="white" class="classText"></text></g><g id="classid-Answer-560" class="classGroup" transform="translate(266.3984375,392.125 )"><rect x="0" y="0" width="112.578125" height="57.375" class=" classShape"></rect><text y="15" x="0"><tspan class="title" x="35.1328125">Answer</tspan></text><line x1="0" y1="24.6875" y2="24.6875" x2="112.578125"></line><text x="5" y="34.6875" fill="white" class="classText"><tspan x="5">- idAnswer</tspan><tspan x="5" dy="10">- descriptionAnswer</tspan></text><line x1="0" y1="51.03125" y2="51.03125" x2="112.578125"></line><text x="5" y="66.03125" fill="white" class="classText"></text></g><g id="classid-EffectPlayer-561" class="classGroup" transform="translate(93.7109375,274.75 )"><rect x="0" y="0" width="116.953125" height="67.375" class=" classShape"></rect><text y="15" x="0"><tspan class="title" x="24.4609375">EffectPlayer</tspan></text><line x1="0" y1="24.6875" y2="24.6875" x2="116.953125"></line><text x="5" y="34.6875" fill="white" class="classText"><tspan x="5">- idEffectPlayer</tspan><tspan x="5" dy="10">- valueEffectPlayer</tspan><tspan x="5" dy="10">- characteristicPlayer</tspan></text><line x1="0" y1="61.03125" y2="61.03125" x2="116.953125"></line><text x="5" y="76.03125" fill="white" class="classText"></text></g><g id="classid-EffectStudent-562" class="classGroup" transform="translate(260.6640625,274.75 )"><rect x="0" y="0" width="124.046875" height="67.375" class=" classShape"></rect><text y="15" x="0"><tspan class="title" x="24.0859375">EffectStudent</tspan></text><line x1="0" y1="24.6875" y2="24.6875" x2="124.046875"></line><text x="5" y="34.6875" fill="white" class="classText"><tspan x="5">- idEffectStudent</tspan><tspan x="5" dy="10">- valueStudent</tspan><tspan x="5" dy="10">- characteristicStudent</tspan></text><line x1="0" y1="61.03125" y2="61.03125" x2="124.046875"></line><text x="5" y="76.03125" fill="white" class="classText"></text></g><g id="classid-Game-563" class="classGroup" transform="translate(206.46875,0 )"><rect x="0" y="0" width="61.9375" height="77.375" class=" classShape"></rect><text y="15" x="0"><tspan class="title" x="15.1328125">Game</tspan></text><line x1="0" y1="24.6875" y2="24.6875" x2="61.9375"></line><text x="5" y="34.6875" fill="white" class="classText"><tspan x="5">- idGame</tspan><tspan x="5" dy="10">- turn</tspan><tspan x="5" dy="10">- dayTime</tspan><tspan x="5" dy="10">- date</tspan></text><line x1="0" y1="71.03125" y2="71.03125" x2="61.9375"></line><text x="5" y="86.03125" fill="white" class="classText"></text></g><path d="M453.9765625,214.75L453.9765625,220.58333333333334C453.9765625,226.41666666666666,453.9765625,238.08333333333334,466.6171875,249.41119131659147C479.2578125,260.73904929984957,504.5390625,271.7280985996991,517.1796875,277.2226232496239L529.8203125,282.71714789954865" id="edge517" class="relation" marker-end="url(#dependencyEnd)"></path><g class="classLabel"><rect class="box" x="-2.5" y="-2.5" width="5" height="5"></rect><text class="label" x="475.8490619549764" y="259.2573611795963" fill="red" text-anchor="middle"></text></g><path d="M588.9921875,209.75L588.9921875,216.41666666666666C588.9921875,223.08333333333334,588.9921875,236.41666666666666,588.9921875,247.25C588.9921875,258.0833333333333,588.9921875,266.4166666666667,588.9921875,270.5833333333333L588.9921875,274.75" id="edge518" class="relation" marker-end="url(#dependencyEnd)"></path><g class="classLabel"><rect class="box" x="-2.5" y="-2.5" width="5" height="5"></rect><text class="label" x="588.9921875" y="242.25" fill="red" text-anchor="middle"></text></g><path d="M206.46875,61.823245051319645L197.421875,68.5818708760997C188.375,75.34049670087977,170.28125,88.85774835043988,161.234375,100.61637417521995C152.1875,112.375,152.1875,122.375,152.1875,127.375L152.1875,132.375" id="edge519" class="relation"></path><g class="classLabel"><rect class="box" x="-2.5" y="-2.5" width="5" height="5"></rect><text class="label" x="167.31123091845268" y="91.0765529282234" fill="red" text-anchor="middle"></text></g><g class="cardinality"><text class="type1" x="193.46219479785606" y="65.29880569294018" fill="black" font-size="6">1</text></g><g class="cardinality"><text class="type2" x="157.1875" y="119.875" fill="black" font-size="6">1</text></g><path d="M268.40625,61.823245051319645L277.453125,68.5818708760997C286.5,75.34049670087977,304.59375,88.85774835043988,313.640625,99.7830408418866C322.6875,110.70833333333333,322.6875,119.04166666666667,322.6875,123.20833333333333L322.6875,127.375" id="edge520" class="relation"></path><g class="classLabel"><rect class="box" x="-2.5" y="-2.5" width="5" height="5"></rect><text class="label" x="305.56095340128945" y="89.58031452779613" fill="red" text-anchor="middle"></text></g><g class="cardinality"><text class="type1" x="275.4278516004349" y="73.31006841397173" fill="black" font-size="6">1</text></g><g class="cardinality"><text class="type2" x="327.6875" y="114.875" fill="black" font-size="6">0..</text></g><path d="M152.1875,342.125L152.1875,346.2916666666667C152.1875,350.4583333333333,152.1875,358.7916666666667,171.22265625,368.9521746891801C190.2578125,379.1126827116936,228.328125,391.10036542338713,247.36328125,397.0942067792339L266.3984375,403.08804813508067" id="edge521" class="relation"></path><g class="classLabel"><rect class="box" x="-2.5" y="-2.5" width="5" height="5"></rect><text class="label" x="197.37008496219946" y="381.3522142531266" fill="red" text-anchor="middle"></text></g><g class="cardinality"><text class="type1" x="147.1875" y="354.625" fill="black" font-size="6">0..</text></g><g class="cardinality"><text class="type2" x="255.97727763796496" y="394.56458480554676" fill="black" font-size="6">1..</text></g><path d="M322.6875,342.125L322.6875,346.2916666666667C322.6875,350.4583333333333,322.6875,358.7916666666667,322.6875,367.125C322.6875,375.4583333333333,322.6875,383.7916666666667,322.6875,387.9583333333333L322.6875,392.125" id="edge522" class="relation"></path><g class="classLabel"><rect class="box" x="-2.5" y="-2.5" width="5" height="5"></rect><text class="label" x="322.6875" y="367.125" fill="red" text-anchor="middle"></text></g><g class="cardinality"><text class="type1" x="317.6875" y="354.625" fill="black" font-size="6">0..</text></g><g class="cardinality"><text class="type2" x="327.6875" y="379.625" fill="black" font-size="6">1..</text></g><path d="M588.9921875,342.125L588.9921875,346.2916666666667C588.9921875,350.4583333333333,588.9921875,358.7916666666667,553.9895833333334,370.01492076647014C518.9869791666666,381.23817486627354,448.9817708333333,395.3513497325471,413.9791666666667,402.4079371656839L378.9765625,409.4645245988207" id="edge523" class="relation"></path><g class="classLabel"><rect class="box" x="-2.5" y="-2.5" width="5" height="5"></rect><text class="label" x="496.23784441573423" y="385.8244410090379" fill="red" text-anchor="middle"></text></g><g class="cardinality"><text class="type1" x="583.9921875" y="354.625" fill="black" font-size="6">1</text></g><g class="cardinality"><text class="type2" x="392.2181604318831" y="411.89559107474196" fill="black" font-size="6">0..</text></g><path d="M206.46875,48.37764125052777L177.70703125,57.37720104210647C148.9453125,66.37676083368518,91.421875,84.37588041684259,62.66015625,98.3754402084213C33.8984375,112.375,33.8984375,122.375,33.8984375,127.375L33.8984375,132.375" id="edge524" class="relation"></path><g class="classLabel"><rect class="box" x="-2.5" y="-2.5" width="5" height="5"></rect><text class="label" x="105.86802782514799" y="79.85567015965124" fill="red" text-anchor="middle"></text></g><g class="cardinality"><text class="type1" x="193.04599521782754" y="47.33857722089989" fill="black" font-size="6">1</text></g><g class="cardinality"><text class="type2" x="38.8984375" y="119.875" fill="black" font-size="6">1</text></g><path d="M152.1875,219.75L152.1875,224.75C152.1875,229.75,152.1875,239.75,152.1875,248.91666666666666C152.1875,258.0833333333333,152.1875,266.4166666666667,152.1875,270.5833333333333L152.1875,274.75" id="edge525" class="relation"></path><g class="classLabel"><rect class="box" x="-2.5" y="-2.5" width="5" height="5"></rect><text class="label" x="152.1875" y="247.25" fill="red" text-anchor="middle"></text></g><g class="cardinality"><text class="type1" x="147.1875" y="232.25" fill="black" font-size="6">1..</text></g><g class="cardinality"><text class="type2" x="157.1875" y="262.25" fill="black" font-size="6">0..</text></g><path d="M322.6875,224.75L322.6875,228.91666666666666C322.6875,233.08333333333334,322.6875,241.41666666666666,322.6875,249.75C322.6875,258.0833333333333,322.6875,266.4166666666667,322.6875,270.5833333333333L322.6875,274.75" id="edge526" class="relation"></path><g class="classLabel"><rect class="box" x="-2.5" y="-2.5" width="5" height="5"></rect><text class="label" x="322.6875" y="249.75" fill="red" text-anchor="middle"></text></g><g class="cardinality"><text class="type1" x="317.6875" y="237.25" fill="black" font-size="6">1..</text></g><g class="cardinality"><text class="type2" x="327.6875" y="262.25" fill="black" font-size="6">0..</text></g><path d="M268.40625,43.29859132420091L334.5338541666667,53.1446594368341C400.6614583333333,62.99072754946727,532.9166666666666,82.68286377473363,599.0442708333334,104.81018188736682C665.171875,126.9375,665.171875,151.5,665.171875,176.0625C665.171875,200.625,665.171875,225.1875,659.7633064873979,241.63541666666666C654.354737974796,258.0833333333333,643.5376009495918,266.4166666666667,638.1290324369897,270.5833333333333L632.7204639243877,274.75" id="edge527" class="relation"></path><g class="classLabel"><rect class="box" x="-2.5" y="-2.5" width="5" height="5"></rect><text class="label" x="559.9320193086166" y="86.70531408956792" fill="red" text-anchor="middle"></text></g><g class="cardinality"><text class="type1" x="280.03359420410874" y="50.08496493307181" fill="black" font-size="6">0..</text></g><g class="cardinality"><text class="type2" x="645.6741685804378" y="271.0823664736205" fill="black" font-size="6">1..</text></g></svg>