<?xml version="1.0" standalone="no"?>
<!DOCTYPE svg PUBLIC "-//W3C//DTD SVG 20010904//EN"
 "http://www.w3.org/TR/2001/REC-SVG-20010904/DTD/svg10.dtd">
<svg version="1.0" xmlns="http://www.w3.org/2000/svg"
 width="985.000000pt" height="371.000000pt" viewBox="0 0 985.000000 371.000000"
 preserveAspectRatio="xMidYMid meet">

<g transform="translate(0.000000,371.000000) scale(0.100000,-0.100000)"
fill="#000000" stroke="none">
<path d="M2980 3010 c0 -6 77 -10 212 -10 l211 0 296 -145 c646 -318 886 -472
1077 -694 71 -81 101 -103 45 -33 -60 77 -239 238 -347 313 -167 117 -501 297
-930 502 l-162 77 -201 0 c-127 0 -201 -4 -201 -10z"/>
<path d="M4870 3010 c0 -6 75 -10 205 -10 130 0 205 4 205 10 0 6 -75 10 -205
10 -130 0 -205 -4 -205 -10z"/>
<path d="M5785 3010 c4 -6 93 -10 236 -10 146 0 229 4 229 10 0 6 -85 10 -236
10 -154 0 -233 -3 -229 -10z"/>
<path d="M2820 2903 c-275 -162 -485 -308 -583 -407 -49 -49 -136 -181 -125
-191 2 -2 17 21 33 52 73 139 222 258 635 508 208 125 208 125 194 124 -5 0
-74 -39 -154 -86z"/>
<path d="M3390 2951 c0 -7 -74 -12 -202 -14 l-203 -3 212 -1 213 -2 107 -83
c246 -190 395 -334 445 -431 12 -23 29 -67 39 -97 10 -30 18 -47 18 -38 1 31
-40 127 -79 186 -44 65 -178 201 -285 288 -129 105 -265 205 -265 195z"/>
<path d="M4973 2933 c59 -2 154 -2 210 0 56 1 8 3 -108 3 -115 0 -161 -2 -102
-3z"/>
<path d="M5898 2933 c68 -2 176 -2 240 0 64 1 9 3 -123 3 -132 0 -185 -2 -117
-3z"/>
<path d="M5072 2515 l-2 -340 -25 30 -25 30 25 -59 c14 -32 25 -66 25 -75 1
-9 9 7 19 34 10 28 23 62 30 75 12 24 11 24 -13 -3 l-26 -28 -3 338 -2 338 -3
-340z"/>
<path d="M6013 2775 c0 -44 2 -61 4 -37 2 23 2 59 0 80 -2 20 -4 1 -4 -43z"/>
<path d="M3132 2805 c0 -16 2 -22 5 -12 2 9 2 23 0 30 -3 6 -5 -1 -5 -18z"/>
<path d="M3122 2745 c0 -16 2 -22 5 -12 2 9 2 23 0 30 -3 6 -5 -1 -5 -18z"/>
<path d="M3112 2675 c0 -16 2 -22 5 -12 2 9 2 23 0 30 -3 6 -5 -1 -5 -18z"/>
<path d="M5997 2655 c-17 -104 -110 -230 -255 -348 -81 -66 -304 -227 -315
-227 -4 0 -5 17 -2 38 3 20 2 30 -1 22 -4 -8 -17 -36 -29 -61 l-21 -45 54 -10
54 -10 -26 19 c-14 10 -26 22 -26 27 0 4 19 20 43 35 97 64 307 227 367 286
36 35 80 86 97 113 39 59 75 151 71 180 -2 13 -6 5 -11 -19z"/>
<path d="M3102 2600 c0 -19 2 -27 5 -17 2 9 2 25 0 35 -3 9 -5 1 -5 -18z"/>
<path d="M3093 2510 c0 -25 2 -35 4 -22 2 12 2 32 0 45 -2 12 -4 2 -4 -23z"/>
<path d="M3084 2305 c0 -71 1 -99 3 -62 2 37 2 96 0 130 -2 34 -3 4 -3 -68z"/>
<path d="M2101 2274 c0 -11 3 -14 6 -6 3 7 2 16 -1 19 -3 4 -6 -2 -5 -13z"/>
<path d="M2093 2215 c0 -22 2 -30 4 -17 2 12 2 30 0 40 -3 9 -5 -1 -4 -23z"/>
<path d="M4023 2170 c0 -47 2 -66 4 -42 2 23 2 61 0 85 -2 23 -4 4 -4 -43z"/>
<path d="M3075 2100 c-3 -5 -1 -10 4 -10 6 0 11 5 11 10 0 6 -2 10 -4 10 -3 0
-8 -4 -11 -10z"/>
<path d="M1978 1733 c61 -2 163 -2 225 0 61 1 11 3 -113 3 -124 0 -174 -2
-112 -3z"/>
<path d="M2953 1733 c76 -2 198 -2 270 0 73 1 11 3 -138 3 -148 0 -208 -2
-132 -3z"/>
<path d="M3938 1733 c50 -2 134 -2 185 0 50 1 9 3 -93 3 -102 0 -143 -2 -92
-3z"/>
<path d="M4928 1733 c84 -2 219 -2 300 0 81 1 12 3 -153 3 -165 0 -231 -2
-147 -3z"/>
<path d="M6063 1733 c108 -2 286 -2 395 0 108 1 19 2 -198 2 -217 0 -306 -1
-197 -2z"/>
<path d="M7363 1733 c119 -2 315 -2 435 0 119 1 21 2 -218 2 -239 0 -337 -1
-217 -2z"/>
<path d="M1870 1660 c0 -6 80 -10 220 -10 140 0 220 4 220 10 0 6 -80 10 -220
10 -140 0 -220 -4 -220 -10z"/>
<path d="M2820 1660 c0 -6 95 -10 266 -10 174 0 263 3 259 10 -4 6 -103 10
-266 10 -166 0 -259 -4 -259 -10z"/>
<path d="M3850 1660 c0 -6 67 -10 181 -10 117 0 178 3 174 10 -4 6 -75 10
-181 10 -109 0 -174 -4 -174 -10z"/>
<path d="M4780 1660 c0 -6 105 -10 295 -10 190 0 295 4 295 10 0 6 -105 10
-295 10 -190 0 -295 -4 -295 -10z"/>
<path d="M5870 1660 c0 -6 137 -10 391 -10 257 0 388 3 384 10 -4 6 -145 10
-391 10 -249 0 -384 -4 -384 -10z"/>
<path d="M7150 1660 c0 -7 150 -10 431 -10 284 0 428 3 424 10 -4 6 -158 10
-431 10 -276 0 -424 -3 -424 -10z"/>
<path d="M5073 1510 c0 -36 2 -50 4 -32 2 17 2 47 0 65 -2 17 -4 3 -4 -33z"/>
<path d="M6250 1190 c0 -209 3 -380 8 -380 4 0 7 171 7 380 0 209 -3 380 -7
380 -5 0 -8 -171 -8 -380z"/>
<path d="M7571 1498 c2 -77 6 -69 11 20 2 28 0 52 -4 52 -5 0 -7 -33 -7 -72z"/>
<path d="M5081 1410 c0 -14 4 -32 9 -40 9 -13 10 -13 9 0 -1 8 -5 26 -9 40
l-8 25 -1 -25z"/>
<path d="M7556 1405 c-5 -11 -8 -23 -8 -28 5 -19 -43 -92 -98 -150 -100 -108
-322 -242 -728 -442 -111 -54 -202 -103 -202 -107 0 -9 401 190 553 273 174
96 343 215 397 280 57 68 103 152 98 177 -3 15 -5 14 -12 -3z"/>
<path d="M5100 1344 c0 -24 80 -132 139 -187 62 -57 250 -185 386 -264 161
-93 368 -203 373 -198 7 7 10 5 -88 55 -217 111 -500 283 -621 377 -57 44
-143 144 -172 198 -9 17 -16 25 -17 19z"/>
<path d="M6128 453 c72 -2 192 -2 265 0 72 1 13 3 -133 3 -146 0 -205 -2 -132
-3z"/>
<path d="M6000 380 c0 -6 93 -10 260 -10 167 0 260 4 260 10 0 6 -93 10 -260
10 -167 0 -260 -4 -260 -10z"/>
</g>
</svg>
